<svg width="1920" height="2306" viewBox="0 0 1920 2306" fill="none" xmlns="http://www.w3.org/2000/svg">
<path d="M1942 1237.2C1784.12 1237.2 1761.87 1360.08 1761.87 1448.66C1761.87 1525.81 1770.78 1603 1779.65 1680.14C1788.55 1757.28 1797.42 1837.3 1797.42 1914.49C1797.42 2203.14 1657.32 2306 1474.95 2306H1428.26V2148.89H1466.08C1590.62 2146.02 1643.98 2060.3 1643.98 1900.27C1643.98 1831.7 1635.07 1765.95 1628.4 1694.51C1619.49 1625.93 1610.63 1554.49 1610.63 1477.3C1610.63 1294.38 1672.89 1197.22 1770.74 1165.81V1160.11C1672.89 1125.82 1610.63 1034.36 1610.63 851.44C1610.63 774.297 1619.53 705.677 1628.4 634.232C1635.07 565.661 1643.98 497.041 1643.98 431.343C1643.98 277.009 1597.29 188.421 1468.28 185.548H1428.26V28.389H1472.75C1661.79 28.389 1797.42 139.866 1797.42 402.755C1797.42 482.772 1788.52 559.915 1779.65 639.931C1770.74 719.947 1761.87 799.963 1761.87 879.979C1761.87 980.011 1784.12 1091.44 1942 1091.44V1237.2Z" fill="#495372" fill-opacity="0.02"/>
<path d="M1942 1237.2C1784.12 1237.2 1761.87 1360.08 1761.87 1448.66C1761.87 1525.81 1770.78 1603 1779.65 1680.14C1788.55 1757.28 1797.42 1837.3 1797.42 1914.49C1797.42 2203.14 1657.32 2306 1474.95 2306H1428.26V2148.89H1466.08C1590.62 2146.02 1643.98 2060.3 1643.98 1900.27C1643.98 1831.7 1635.07 1765.95 1628.4 1694.51C1619.49 1625.93 1610.63 1554.49 1610.63 1477.3C1610.63 1294.38 1672.89 1197.22 1770.74 1165.81V1160.11C1672.89 1125.82 1610.63 1034.36 1610.63 851.44C1610.63 774.297 1619.53 705.677 1628.4 634.232C1635.07 565.661 1643.98 497.041 1643.98 431.343C1643.98 277.009 1597.29 188.421 1468.28 185.548H1428.26V28.389H1472.75C1661.79 28.389 1797.42 139.866 1797.42 402.755C1797.42 482.772 1788.52 559.915 1779.65 639.931C1770.74 719.947 1761.87 799.963 1761.87 879.979C1761.87 980.011 1784.12 1091.44 1942 1091.44V1237.2Z" fill="url(#paint0_linear_105_217)" fill-opacity="0.01"/>
<path d="M1080.05 1487.24V1225.93H1199.55V828.629H230.692V984.256V1225.93V1487.24H-16.0607V666.442H539.859V269.138H-16.0607H-285.357H-325.228V1487.24V1851.7V1884.55H230.692V2256.47H539.859V1884.55H770.886V2256.47H1080.05V1884.55H1497.24V1487.24H1080.05ZM878.463 1363.51L695.43 1336.93V1339.9L811.8 1516.98L735.45 1570.13L662.713 1363.51H660.291L581.518 1571.57L512.433 1518.42L627.575 1338.37V1335.4L448.193 1363.46V1263.14L626.382 1291.2V1288.23L512.433 1108.18L586.362 1056.52L661.521 1261.66H663.943L737.872 1055.03L810.608 1105.21L695.467 1289.67V1292.64L878.5 1263.14V1363.51H878.463Z" fill="#495372" fill-opacity="0.02"/>
<path d="M1080.05 1487.24V1225.93H1199.55V828.629H230.692V984.256V1225.93V1487.24H-16.0607V666.442H539.859V269.138H-16.0607H-285.357H-325.228V1487.24V1851.7V1884.55H230.692V2256.47H539.859V1884.55H770.886V2256.47H1080.05V1884.55H1497.24V1487.24H1080.05ZM878.463 1363.51L695.43 1336.93V1339.9L811.8 1516.98L735.45 1570.13L662.713 1363.51H660.291L581.518 1571.57L512.433 1518.42L627.575 1338.37V1335.4L448.193 1363.46V1263.14L626.382 1291.2V1288.23L512.433 1108.18L586.362 1056.52L661.521 1261.66H663.943L737.872 1055.03L810.608 1105.21L695.467 1289.67V1292.64L878.5 1263.14V1363.51H878.463Z" fill="url(#paint1_linear_105_217)" fill-opacity="0.01"/>
<defs>
<linearGradient id="paint0_linear_105_217" x1="1428.26" y1="1167.19" x2="1942" y2="1167.19" gradientUnits="userSpaceOnUse">
<stop stop-color="#1C2131" stop-opacity="0"/>
<stop offset="1" stop-color="#8800FF" stop-opacity="0.16"/>
</linearGradient>
<linearGradient id="paint1_linear_105_217" x1="-325.228" y1="1262.8" x2="1497.24" y2="1262.8" gradientUnits="userSpaceOnUse">
<stop stop-color="#1C2131" stop-opacity="0"/>
<stop offset="1" stop-color="#8800FF" stop-opacity="0.16"/>
</linearGradient>
</defs>
</svg>
