<svg width="2518" height="1477" viewBox="0 0 2518 1477" fill="none"
preserveAspectRatio="none" xmlns="http://www.w3.org/2000/svg">
<rect x="283" y="133" width="106" height="106" rx="10" fill="#8800FF" fill-opacity="0.04"/>
<rect x="209" y="689" width="106" height="106" rx="10" fill="#8800FF" fill-opacity="0.04"/>
<rect x="684" y="221" width="106" height="105" rx="10" fill="#8800FF" fill-opacity="0.04"/>
<rect x="483" y="-25" width="106" height="105" rx="10" fill="#8800FF" fill-opacity="0.04"/>
<rect x="409" y="431" width="106" height="106" rx="10" fill="#8800FF" fill-opacity="0.04"/>
<rect x="1945" y="252" width="106" height="105" rx="10" fill="#8800FF" fill-opacity="0.04"/>
<rect x="1646" y="186" width="106" height="107" rx="10" fill="#8800FF" fill-opacity="0.04"/>
<rect x="1945" y="-13" width="106" height="107" rx="10" fill="#8800FF" fill-opacity="0.04"/>
<rect x="1546" y="595" width="106" height="105" rx="10" fill="#8800FF" fill-opacity="0.04"/>
<rect x="730" y="714" width="106" height="105" rx="10" fill="#8800FF" fill-opacity="0.04"/>
<rect x="515" y="742" width="106" height="105" rx="10" fill="#8800FF" fill-opacity="0.04"/>
<rect x="686" y="1078" width="106" height="105" rx="10" fill="#8800FF" fill-opacity="0.04"/>
<rect x="1204" y="1335" width="106" height="105" rx="10" fill="#8800FF" fill-opacity="0.04"/>
<rect x="1540" y="1176" width="106" height="105" rx="10" fill="#8800FF" fill-opacity="0.04"/>
<rect x="1063" y="714" width="106" height="105" rx="10" fill="#8800FF" fill-opacity="0.04"/>
<rect x="1404" y="834" width="106" height="105" rx="10" fill="#8800FF" fill-opacity="0.04"/>
<rect x="861" y="80" width="106" height="105" rx="10" fill="#8800FF" fill-opacity="0.04"/>
<rect x="1320" y="221" width="106" height="105" rx="10" fill="#8800FF" fill-opacity="0.04"/>
<rect x="2372" y="116" width="106" height="105" rx="10" fill="#8800FF" fill-opacity="0.04"/>
<rect x="2240" y="319" width="106" height="105" rx="10" fill="#8800FF" fill-opacity="0.04"/>
<rect x="2266" y="615" width="106" height="105" rx="10" fill="#8800FF" fill-opacity="0.04"/>
<rect x="2412" y="848" width="106" height="105" rx="10" fill="#8800FF" fill-opacity="0.04"/>
<rect x="1852" y="490" width="106" height="105" rx="10" fill="#8800FF" fill-opacity="0.04"/>
<rect x="2060" y="989" width="106" height="105" rx="10" fill="#8800FF" fill-opacity="0.04"/>
<rect x="2187" y="1236" width="106" height="105" rx="10" fill="#8800FF" fill-opacity="0.04"/>
<rect x="362" y="1094" width="106" height="106" rx="10" fill="#8800FF" fill-opacity="0.04"/>
<rect x="1373" y="1063" width="106" height="106" rx="10" fill="#8800FF" fill-opacity="0.04"/>
<rect x="979" y="371" width="106" height="106" rx="10" fill="#8800FF" fill-opacity="0.04"/>
<rect x="61" y="27" width="106" height="106" rx="10" fill="#8800FF" fill-opacity="0.04"/>
<rect y="424" width="106" height="106" rx="10" fill="#8800FF" fill-opacity="0.04"/>
<rect x="74" y="951" width="106" height="106" rx="10" fill="#8800FF" fill-opacity="0.04"/>
<rect x="53" y="1229" width="106" height="106" rx="10" fill="#8800FF" fill-opacity="0.04"/>
<rect x="1766" y="1183" width="106" height="106" rx="10" fill="#8800FF" fill-opacity="0.04"/>
<rect x="1867" y="795" width="106" height="106" rx="10" fill="#8800FF" fill-opacity="0.04"/>
<rect x="603" y="1264" width="106" height="106" rx="10" fill="#8800FF" fill-opacity="0.04"/>
<rect x="1010" y="1004" width="106" height="106" rx="10" fill="#8800FF" fill-opacity="0.04"/>
<rect x="1216" y="535" width="106" height="105" rx="10" fill="#8800FF" fill-opacity="0.04"/>
<rect x="1074" y="41" width="106" height="106" rx="10" fill="#8800FF" fill-opacity="0.04"/>
<rect x="894" y="1371" width="106" height="106" rx="10" fill="#8800FF" fill-opacity="0.04"/>
</svg>
