<svg width="90" height="89" viewBox="0 0 90 89" fill="none" xmlns="http://www.w3.org/2000/svg">
<g clip-path="url(#clip0_52_101)">
<path d="M89.9627 32.5151H80.8124V60.5627H75.5292V32.5151H66.4012V27.9178H89.9627V32.5151ZM64.5585 60.5627H46.6844V27.9178H63.8504V32.5151H51.9676V41.7618H62.916V46.3369H51.9676V55.9913H64.5585V60.5627ZM39.6882 60.5627H33.9118L18.7034 36.5675C18.3251 35.9691 18.0048 35.3359 17.7469 34.6766H17.6134C17.7321 35.3761 17.7914 36.8715 17.7914 39.1628V60.5627H12.6861V27.9178H18.8369L33.5374 51.3495C34.1553 52.3184 34.5545 52.9857 34.7349 53.3516H34.8239C34.6756 52.4865 34.6014 51.022 34.6014 48.9581V27.9141H39.6882V60.5627ZM7.42135 57.9934C7.42135 58.3973 7.33799 58.7973 7.17603 59.1704C7.01407 59.5436 6.77669 59.8825 6.47746 60.168C6.17824 60.4534 5.82303 60.6798 5.43216 60.834C5.04129 60.9883 4.62241 61.0674 4.19948 61.067C3.77654 61.067 3.35775 60.9873 2.96705 60.8326C2.57635 60.678 2.22141 60.4512 1.92253 60.1654C1.62364 59.8796 1.38668 59.5404 1.22518 59.167C1.06368 58.7937 0.980815 58.3936 0.981326 57.9897C0.982354 57.1752 1.32186 56.3944 1.92527 55.8188C2.52868 55.2432 3.34665 54.9198 4.19948 54.9198C4.62241 54.9194 5.04129 54.9985 5.43216 55.1528C5.82303 55.307 6.17824 55.5334 6.47746 55.8188C6.77669 56.1043 7.01407 56.4433 7.17603 56.8164C7.33799 57.1895 7.42135 57.5895 7.42135 57.9934Z" fill="#8800FF"/>
</g>
<defs>
<clipPath id="clip0_52_101">
<rect width="88.9813" height="88.9811" fill="white" transform="translate(0.981323)"/>
</clipPath>
</defs>
</svg>
