<svg width="90" height="89" viewBox="0 0 90 89" fill="none" xmlns="http://www.w3.org/2000/svg">
<path d="M6.52393 5.56128H84.3826V83.4198H6.52393V5.56128Z" fill="#F5DE19"/>
<path d="M58.8257 66.3883C59.4901 67.735 60.521 68.8669 61.7999 69.6539C63.0788 70.4409 64.5538 70.8511 66.0554 70.8374C69.0864 70.8374 71.0245 69.3219 71.0245 67.2225C71.0245 64.7199 69.0335 63.8246 65.6967 62.3647L63.867 61.5806C58.5838 59.331 55.0801 56.5142 55.0801 50.558C55.0801 45.0718 59.2511 40.8925 65.794 40.8925C67.912 40.7399 70.0281 41.2141 71.8784 42.2559C73.7287 43.2978 75.2315 44.8612 76.1993 46.7513L70.4795 50.4079C70.1066 49.4708 69.4578 48.6691 68.6191 48.109C67.7804 47.5489 66.7914 47.2567 65.7829 47.2713C65.3429 47.2273 64.8986 47.2753 64.4782 47.4125C64.0578 47.5497 63.6705 47.7729 63.3412 48.068C63.0118 48.3631 62.7476 48.7236 62.5652 49.1264C62.3829 49.5293 62.2864 49.9657 62.2821 50.4079C62.2821 52.6018 63.6418 53.4916 66.7812 54.8569L68.6109 55.6411C74.8284 58.3077 78.3432 61.0244 78.3432 67.1336C78.3432 73.7209 73.1684 77.3302 66.2195 77.3302C63.5122 77.501 60.8133 76.8855 58.4478 75.558C56.0822 74.2304 54.1508 72.2473 52.8862 69.8475L58.8257 66.3883ZM32.9794 67.0223C34.1278 69.0606 35.1733 70.7846 37.6871 70.7846C40.0896 70.7846 41.6078 69.8447 41.6078 66.1881V41.3096H48.9237V66.2855C48.9237 73.86 44.4747 77.308 37.9985 77.308C35.7093 77.4331 33.4358 76.8626 31.4769 75.6715C29.5181 74.4804 27.9654 72.7244 27.0232 70.6344L32.9794 67.0223Z" fill="white"/>
</svg>
