<svg width="697" height="1057" viewBox="0 0 697 1057" fill="none" xmlns="http://www.w3.org/2000/svg">
<path d="M218.797 79.4732L173.729 125.915L240.787 195.083L285.791 148.641L218.797 79.4732ZM806.957 79.4732L739.898 148.641L784.935 195.083L851.961 125.948L806.957 79.4732ZM512.861 100.085C502.298 100.173 491.628 100.877 480.852 102.199H479.892C350.065 117.558 246.74 225.802 228.784 359.182C214.444 466.533 257.335 563.876 328.811 626.57C358.044 652.323 377.819 687.655 384.826 726.654V924.842H457.806C468.945 944.562 489.27 957.873 512.861 957.873C536.451 957.873 556.777 944.562 567.916 924.842H640.896V792.717H643.904V753.476C643.904 705.052 668.295 656.232 707.922 618.279C760.928 563.513 800.939 485.725 800.939 396.375C800.939 233.201 670.792 98.5653 512.861 100.085ZM512.861 166.147C636.574 164.364 736.922 268.874 736.922 396.375C736.922 465.542 705.873 526.452 662.885 570.78L663.91 571.837C621.207 612.502 593.587 667.265 585.809 726.687H445.802C438.761 670.072 415.234 615.273 370.774 575.966C314.215 526.419 280.51 451.768 291.777 367.473C305.764 263.424 387.579 179.756 487.83 168.294C496.107 167.11 504.443 166.404 512.797 166.18L512.861 166.147ZM64.739 396.375V462.437H160.765V396.375H64.739ZM864.956 396.375V462.437H960.982V396.375H864.956ZM240.787 663.73L173.761 732.864L218.797 779.339L285.759 710.172L240.787 663.73ZM784.935 663.73L739.93 710.172L806.925 779.339L851.961 732.864L784.935 663.73ZM448.843 792.75H576.878V858.812H448.843V792.75Z" fill="#8800FF" fill-opacity="0.03"/>
</svg>
