<svg width="89" height="89" viewBox="0 0 89 89" fill="none" xmlns="http://www.w3.org/2000/svg">
<path d="M44.4906 37.4833C48.3094 37.4833 51.4237 40.5976 51.4237 44.4906C51.4237 48.1981 48.3094 51.3495 44.4906 51.3495C40.6718 51.3495 37.5575 48.1981 37.5575 44.4906C37.5575 40.5976 40.6718 37.4833 44.4906 37.4833ZM27.3246 74.1509C29.6604 75.5598 34.7768 73.4094 40.6718 67.8481C38.7439 65.6607 36.853 63.2878 35.0734 60.8038C32.086 60.5158 29.1158 60.0703 26.1753 59.4691C24.2844 67.4032 24.9889 72.8533 27.3246 74.1509ZM29.957 52.8696L28.8818 50.9788C28.474 52.054 28.0661 53.1292 27.8066 54.1673C28.8076 54.3897 29.9199 54.5751 31.0693 54.7605L29.957 52.8696ZM54.2044 50.0519L57.2075 44.4906L54.2044 38.9292C53.0921 36.9642 51.9057 35.2217 50.8305 33.4792C48.8284 33.3679 46.7151 33.3679 44.4906 33.3679C42.2661 33.3679 40.1528 33.3679 38.1507 33.4792C37.0755 35.2217 35.8891 36.9642 34.7768 38.9292L31.7737 44.4906L34.7768 50.0519C35.8891 52.0169 37.0755 53.7594 38.1507 55.502C40.1528 55.6132 42.2661 55.6132 44.4906 55.6132C46.7151 55.6132 48.8284 55.6132 50.8305 55.502C51.9057 53.7594 53.0921 52.0169 54.2044 50.0519ZM44.4906 25.1372C43.7862 25.9528 43.0447 26.8056 42.3031 27.8066H46.6781C45.9365 26.8056 45.195 25.9528 44.4906 25.1372ZM44.4906 63.844C45.195 63.0283 45.9365 62.1756 46.6781 61.1745H42.3031C43.0447 62.1756 43.7862 63.0283 44.4906 63.844ZM61.6195 14.8302C59.3208 13.4213 54.2044 15.5717 48.3094 21.133C50.2373 23.3205 52.1282 25.6933 53.9078 28.1774C56.948 28.474 59.9511 28.9189 62.8059 29.5121C64.6968 21.5779 63.9923 16.1278 61.6195 14.8302ZM59.0242 36.1115L60.0994 38.0024C60.5072 36.9272 60.9151 35.852 61.1746 34.8139C60.1736 34.5914 59.0613 34.406 57.9119 34.2207L59.0242 36.1115ZM64.4002 9.9733C69.8503 13.0876 70.4435 21.2813 68.1448 30.8468C77.562 33.6275 84.3468 38.2248 84.3468 44.4906C84.3468 50.7563 77.562 55.3537 68.1448 58.1343C70.4435 67.6998 69.8503 75.8935 64.4002 79.0078C58.9871 82.1222 51.6091 78.5629 44.4906 71.7781C37.3721 78.5629 29.9941 82.1222 24.544 79.0078C19.1309 75.8935 18.5377 67.6998 20.8364 58.1343C11.4192 55.3537 4.6344 50.7563 4.6344 44.4906C4.6344 38.2248 11.4192 33.6275 20.8364 30.8468C18.5377 21.2813 19.1309 13.0876 24.544 9.9733C29.9941 6.85896 37.3721 10.4182 44.4906 17.203C51.6091 10.4182 58.9871 6.85896 64.4002 9.9733ZM63.325 44.4906C64.5855 47.2712 65.6978 50.0519 66.6247 52.8696C74.4106 50.5339 78.7855 47.1971 78.7855 44.4906C78.7855 41.7841 74.4106 38.4473 66.6247 36.1115C65.6978 38.9292 64.5855 41.7099 63.325 44.4906ZM25.6562 44.4906C24.3957 41.7099 23.2834 38.9292 22.3565 36.1115C14.5706 38.4473 10.1957 41.7841 10.1957 44.4906C10.1957 47.1971 14.5706 50.5339 22.3565 52.8696C23.2834 50.0519 24.3957 47.2712 25.6562 44.4906ZM59.0242 52.8696L57.9119 54.7605C59.0613 54.5751 60.1736 54.3897 61.1746 54.1673C60.9151 53.1292 60.5072 52.054 60.0994 50.9788L59.0242 52.8696ZM48.3094 67.8481C54.2044 73.4094 59.3208 75.5598 61.6195 74.1509C63.9923 72.8533 64.6968 67.4032 62.8059 59.4691C59.9511 60.0623 56.948 60.5072 53.9078 60.8038C52.1282 63.2878 50.2373 65.6607 48.3094 67.8481ZM29.957 36.1115L31.0693 34.2207C29.9199 34.406 28.8076 34.5914 27.8066 34.8139C28.0661 35.852 28.474 36.9272 28.8818 38.0024L29.957 36.1115ZM40.6718 21.133C34.7768 15.5717 29.6604 13.4213 27.3246 14.8302C24.9889 16.1278 24.2844 21.5779 26.1753 29.5121C29.1158 28.9109 32.086 28.4654 35.0734 28.1774C36.853 25.6933 38.7439 23.3205 40.6718 21.133Z" fill="#0B89FF"/>
</svg>
