<svg width="90" height="89" viewBox="0 0 90 89" fill="none" xmlns="http://www.w3.org/2000/svg">
<path d="M24.7148 42.4218C31.3557 44.7534 38.3604 45.8769 45.3974 45.7391C52.4345 45.876 59.4393 44.7515 66.08 42.419C71.2632 40.3974 73.1012 38.1507 73.1012 36.8577V26.9724C71.2886 28.1851 69.3446 29.1888 67.3063 29.9644C60.2807 32.4797 52.8587 33.7061 45.3974 33.5848C37.9369 33.7018 30.516 32.4774 23.4885 29.97C21.449 29.1948 19.5048 28.1891 17.6936 26.9724V36.8438C17.6936 38.1618 19.5372 40.3974 24.7148 42.4218ZM24.7148 61.0661C27.0605 61.9608 29.4795 62.6502 31.9445 63.1266C36.3773 63.9823 40.8828 64.4042 45.3974 64.3862C49.9119 64.4051 54.4174 63.9841 58.8503 63.1293C61.3153 62.653 63.7343 61.9636 66.08 61.0689C71.2632 59.0473 73.1012 56.8006 73.1012 55.5076V46.0811C71.6033 46.9825 70.029 47.7502 68.3963 48.3752C61.0156 50.9877 53.2255 52.2526 45.3974 52.1096C37.5684 52.2482 29.7783 50.9785 22.3985 48.3613C20.7675 47.7324 19.1935 46.9649 17.6936 46.0672V55.502C17.6936 56.7978 19.5372 59.0362 24.7148 61.0661ZM45.3974 83.4198C60.6911 83.4198 73.1012 78.5704 73.1012 72.5919V64.7032C71.7385 65.5246 70.311 66.2333 68.8329 66.8221L68.3963 66.9972C61.017 69.6174 53.2269 70.8898 45.3974 70.7539C37.5675 70.8959 29.7763 69.6233 22.3985 66.9972L21.9619 66.8221C20.4838 66.2333 19.0563 65.5246 17.6936 64.7032V72.5919C17.6936 78.5704 30.1037 83.4198 45.3974 83.4198Z" fill="#FFDA44"/>
<path d="M45.3974 27.2171C60.6978 27.2171 73.1012 22.3693 73.1012 16.3892C73.1012 10.4091 60.6978 5.56128 45.3974 5.56128C30.097 5.56128 17.6936 10.4091 17.6936 16.3892C17.6936 22.3693 30.097 27.2171 45.3974 27.2171Z" fill="#FFDA44"/>
</svg>
