<svg width="1100" height="3200" viewBox="0 0 1100 3200" fill="none" xmlns="http://www.w3.org/2000/svg">
<rect x="45" y="9" width="40" height="40" rx="5" fill="#8800FF" fill-opacity="0.04"/>
<rect x="30" y="801" width="40" height="40" rx="5" fill="#8800FF" fill-opacity="0.04"/>
<rect x="15" y="1593" width="40" height="40" rx="5" fill="#8800FF" fill-opacity="0.04"/>
<rect y="2385" width="40" height="40" rx="5" fill="#8800FF" fill-opacity="0.04"/>
<rect x="65" y="110" width="40" height="40" rx="5" fill="#8800FF" fill-opacity="0.04"/>
<rect x="50" y="902" width="40" height="40" rx="5" fill="#8800FF" fill-opacity="0.04"/>
<rect x="35" y="1694" width="40" height="40" rx="5" fill="#8800FF" fill-opacity="0.04"/>
<rect x="20" y="2486" width="40" height="40" rx="5" fill="#8800FF" fill-opacity="0.04"/>
<rect x="140" y="219" width="40" height="40" rx="5" fill="#8800FF" fill-opacity="0.04"/>
<rect x="125" y="1011" width="40" height="40" rx="5" fill="#8800FF" fill-opacity="0.04"/>
<rect x="110" y="1803" width="40" height="40" rx="5" fill="#8800FF" fill-opacity="0.04"/>
<rect x="95" y="2595" width="40" height="40" rx="5" fill="#8800FF" fill-opacity="0.04"/>
<rect x="230" y="70" width="40" height="40" rx="5" fill="#8800FF" fill-opacity="0.04"/>
<rect x="215" y="862" width="40" height="40" rx="5" fill="#8800FF" fill-opacity="0.04"/>
<rect x="200" y="1654" width="40" height="40" rx="5" fill="#8800FF" fill-opacity="0.04"/>
<rect x="185" y="2446" width="40" height="40" rx="5" fill="#8800FF" fill-opacity="0.04"/>
<rect x="270" y="284" width="40" height="40" rx="5" fill="#8800FF" fill-opacity="0.04"/>
<rect x="255" y="1076" width="40" height="40" rx="5" fill="#8800FF" fill-opacity="0.04"/>
<rect x="240" y="1868" width="40" height="40" rx="5" fill="#8800FF" fill-opacity="0.04"/>
<rect x="225" y="2660" width="40" height="40" rx="5" fill="#8800FF" fill-opacity="0.04"/>
<rect x="426" y="9" width="40" height="40" rx="5" fill="#8800FF" fill-opacity="0.04"/>
<rect x="411" y="801" width="40" height="40" rx="5" fill="#8800FF" fill-opacity="0.04"/>
<rect x="396" y="1593" width="40" height="40" rx="5" fill="#8800FF" fill-opacity="0.04"/>
<rect x="381" y="2385" width="40" height="40" rx="5" fill="#8800FF" fill-opacity="0.04"/>
<rect x="446" y="141" width="40" height="40" rx="5" fill="#8800FF" fill-opacity="0.04"/>
<rect x="431" y="933" width="40" height="40" rx="5" fill="#8800FF" fill-opacity="0.04"/>
<rect x="416" y="1725" width="40" height="40" rx="5" fill="#8800FF" fill-opacity="0.04"/>
<rect x="401" y="2517" width="40" height="40" rx="5" fill="#8800FF" fill-opacity="0.04"/>
<rect x="629" y="70" width="40" height="40" rx="5" fill="#8800FF" fill-opacity="0.04"/>
<rect x="614" y="862" width="40" height="40" rx="5" fill="#8800FF" fill-opacity="0.04"/>
<rect x="599" y="1654" width="40" height="40" rx="5" fill="#8800FF" fill-opacity="0.04"/>
<rect x="584" y="2446" width="40" height="40" rx="5" fill="#8800FF" fill-opacity="0.04"/>
<rect x="940" width="40" height="40" rx="5" fill="#8800FF" fill-opacity="0.04"/>
<rect x="925" y="792" width="40" height="40" rx="5" fill="#8800FF" fill-opacity="0.04"/>
<rect x="910" y="1584" width="40" height="40" rx="5" fill="#8800FF" fill-opacity="0.04"/>
<rect x="895" y="2376" width="40" height="40" rx="5" fill="#8800FF" fill-opacity="0.04"/>
<rect x="1068" y="110" width="40" height="40" rx="5" fill="#8800FF" fill-opacity="0.04"/>
<rect x="1053" y="902" width="40" height="40" rx="5" fill="#8800FF" fill-opacity="0.04"/>
<rect x="1038" y="1694" width="40" height="40" rx="5" fill="#8800FF" fill-opacity="0.04"/>
<rect x="1023" y="2486" width="40" height="40" rx="5" fill="#8800FF" fill-opacity="0.04"/>
<rect x="1004" y="227" width="40" height="40" rx="5" fill="#8800FF" fill-opacity="0.04"/>
<rect x="989" y="1019" width="40" height="40" rx="5" fill="#8800FF" fill-opacity="0.04"/>
<rect x="974" y="1811" width="40" height="40" rx="5" fill="#8800FF" fill-opacity="0.04"/>
<rect x="959" y="2603" width="40" height="40" rx="5" fill="#8800FF" fill-opacity="0.04"/>
<rect x="827" y="121" width="40" height="40" rx="5" fill="#8800FF" fill-opacity="0.04"/>
<rect x="812" y="913" width="40" height="40" rx="5" fill="#8800FF" fill-opacity="0.04"/>
<rect x="797" y="1705" width="40" height="40" rx="5" fill="#8800FF" fill-opacity="0.04"/>
<rect x="782" y="2497" width="40" height="40" rx="5" fill="#8800FF" fill-opacity="0.04"/>
<rect x="669" y="179" width="40" height="40" rx="5" fill="#8800FF" fill-opacity="0.04"/>
<rect x="654" y="971" width="40" height="40" rx="5" fill="#8800FF" fill-opacity="0.04"/>
<rect x="639" y="1763" width="40" height="40" rx="5" fill="#8800FF" fill-opacity="0.04"/>
<rect x="624" y="2555" width="40" height="40" rx="5" fill="#8800FF" fill-opacity="0.04"/>
<rect x="859" y="372" width="40" height="40" rx="5" fill="#8800FF" fill-opacity="0.04"/>
<rect x="844" y="1164" width="40" height="40" rx="5" fill="#8800FF" fill-opacity="0.04"/>
<rect x="829" y="1956" width="40" height="40" rx="5" fill="#8800FF" fill-opacity="0.04"/>
<rect x="814" y="2748" width="40" height="40" rx="5" fill="#8800FF" fill-opacity="0.04"/>
<rect x="1068" y="432" width="40" height="40" rx="5" fill="#8800FF" fill-opacity="0.04"/>
<rect x="1053" y="1224" width="40" height="40" rx="5" fill="#8800FF" fill-opacity="0.04"/>
<rect x="1038" y="2016" width="40" height="40" rx="5" fill="#8800FF" fill-opacity="0.04"/>
<rect x="1023" y="2808" width="40" height="40" rx="5" fill="#8800FF" fill-opacity="0.04"/>
<rect x="350" y="412" width="40" height="40" rx="5" fill="#8800FF" fill-opacity="0.04"/>
<rect x="335" y="1204" width="40" height="40" rx="5" fill="#8800FF" fill-opacity="0.04"/>
<rect x="320" y="1996" width="40" height="40" rx="5" fill="#8800FF" fill-opacity="0.04"/>
<rect x="305" y="2788" width="40" height="40" rx="5" fill="#8800FF" fill-opacity="0.04"/>
<rect x="72" y="452" width="40" height="40" rx="5" fill="#8800FF" fill-opacity="0.04"/>
<rect x="57" y="1244" width="40" height="40" rx="5" fill="#8800FF" fill-opacity="0.04"/>
<rect x="42" y="2036" width="40" height="40" rx="5" fill="#8800FF" fill-opacity="0.04"/>
<rect x="27" y="2828" width="40" height="40" rx="5" fill="#8800FF" fill-opacity="0.04"/>
<rect x="180" y="575" width="40" height="40" rx="5" fill="#8800FF" fill-opacity="0.04"/>
<rect x="165" y="1367" width="40" height="40" rx="5" fill="#8800FF" fill-opacity="0.04"/>
<rect x="150" y="2159" width="40" height="40" rx="5" fill="#8800FF" fill-opacity="0.04"/>
<rect x="135" y="2951" width="40" height="40" rx="5" fill="#8800FF" fill-opacity="0.04"/>
<rect x="52" y="732" width="40" height="40" rx="5" fill="#8800FF" fill-opacity="0.04"/>
<rect x="37" y="1524" width="40" height="40" rx="5" fill="#8800FF" fill-opacity="0.04"/>
<rect x="22" y="2316" width="40" height="40" rx="5" fill="#8800FF" fill-opacity="0.04"/>
<rect x="7" y="3108" width="40" height="40" rx="5" fill="#8800FF" fill-opacity="0.04"/>
<rect x="555" y="595" width="40" height="40" rx="5" fill="#8800FF" fill-opacity="0.04"/>
<rect x="540" y="1387" width="40" height="40" rx="5" fill="#8800FF" fill-opacity="0.04"/>
<rect x="525" y="2179" width="40" height="40" rx="5" fill="#8800FF" fill-opacity="0.04"/>
<rect x="510" y="2971" width="40" height="40" rx="5" fill="#8800FF" fill-opacity="0.04"/>
<rect x="641" y="425" width="40" height="40" rx="5" fill="#8800FF" fill-opacity="0.04"/>
<rect x="626" y="1217" width="40" height="40" rx="5" fill="#8800FF" fill-opacity="0.04"/>
<rect x="611" y="2009" width="40" height="40" rx="5" fill="#8800FF" fill-opacity="0.04"/>
<rect x="596" y="2801" width="40" height="40" rx="5" fill="#8800FF" fill-opacity="0.04"/>
<rect x="787" y="516" width="40" height="40" rx="5" fill="#8800FF" fill-opacity="0.04"/>
<rect x="772" y="1308" width="40" height="40" rx="5" fill="#8800FF" fill-opacity="0.04"/>
<rect x="757" y="2100" width="40" height="40" rx="5" fill="#8800FF" fill-opacity="0.04"/>
<rect x="742" y="2892" width="40" height="40" rx="5" fill="#8800FF" fill-opacity="0.04"/>
<rect x="980" y="635" width="40" height="40" rx="5" fill="#8800FF" fill-opacity="0.04"/>
<rect x="965" y="1427" width="40" height="40" rx="5" fill="#8800FF" fill-opacity="0.04"/>
<rect x="950" y="2219" width="40" height="40" rx="5" fill="#8800FF" fill-opacity="0.04"/>
<rect x="935" y="3011" width="40" height="40" rx="5" fill="#8800FF" fill-opacity="0.04"/>
<rect x="827" y="732" width="40" height="40" rx="5" fill="#8800FF" fill-opacity="0.04"/>
<rect x="812" y="1524" width="40" height="40" rx="5" fill="#8800FF" fill-opacity="0.04"/>
<rect x="797" y="2316" width="40" height="40" rx="5" fill="#8800FF" fill-opacity="0.04"/>
<rect x="782" y="3108" width="40" height="40" rx="5" fill="#8800FF" fill-opacity="0.04"/>
<rect x="412" y="692" width="40" height="40" rx="5" fill="#8800FF" fill-opacity="0.04"/>
<rect x="397" y="1484" width="40" height="40" rx="5" fill="#8800FF" fill-opacity="0.04"/>
<rect x="382" y="2276" width="40" height="40" rx="5" fill="#8800FF" fill-opacity="0.04"/>
<rect x="367" y="3068" width="40" height="40" rx="5" fill="#8800FF" fill-opacity="0.04"/>
<rect x="542" y="284" width="40" height="40" rx="5" fill="#8800FF" fill-opacity="0.04"/>
<rect x="527" y="1076" width="40" height="40" rx="5" fill="#8800FF" fill-opacity="0.04"/>
<rect x="512" y="1868" width="40" height="40" rx="5" fill="#8800FF" fill-opacity="0.04"/>
<rect x="497" y="2660" width="40" height="40" rx="5" fill="#8800FF" fill-opacity="0.04"/>
</svg>
