<svg width="98" height="29" viewBox="0 0 98 29" fill="none" xmlns="http://www.w3.org/2000/svg">
<g clip-path="url(#clip0_52_120)">
<path d="M94.5001 4.45763C94.8977 4.93433 95.3674 5.17268 95.909 5.17268C96.4675 5.17268 96.9456 4.93433 97.3432 4.45763C97.7408 3.98093 97.9397 3.41801 97.9397 2.76887C97.9397 2.11973 97.7408 1.55167 97.3432 1.0647C96.9456 0.577731 96.4675 0.334322 95.909 0.334473C95.3672 0.334473 94.8976 0.577882 94.5001 1.0647C94.1024 1.55167 93.9035 2.11973 93.9035 2.76887C93.9035 3.41801 94.1024 3.98093 94.5001 4.45763ZM51.6758 10.6818C51.6758 10.7316 51.642 10.7722 51.6003 10.7722H48.8073V17.1014C48.8073 17.6288 48.9173 18.0143 49.1373 18.2577C49.3573 18.5012 49.6788 18.6382 50.102 18.6685C50.4685 18.6948 50.9115 18.6945 51.4308 18.6676L51.558 18.6606L51.5963 18.6583C51.6066 18.6577 51.6168 18.6596 51.6264 18.6639C51.636 18.6681 51.6448 18.6746 51.6523 18.6831C51.6597 18.6915 51.6657 18.7016 51.6697 18.7129C51.6738 18.7241 51.6759 18.7362 51.676 18.7485V22.1326C51.6758 22.1548 51.6689 22.1761 51.6565 22.1926C51.6441 22.2091 51.6271 22.2196 51.6087 22.2221L51.5575 22.2288C49.3695 22.5083 47.8224 22.2496 46.9163 21.4526C45.9937 20.6412 45.5325 19.1907 45.5327 17.1012V10.7722H43.3998C43.3797 10.772 43.3606 10.7625 43.3465 10.7455C43.3323 10.7286 43.3244 10.7057 43.3243 10.6818V7.08908C43.3243 7.03925 43.3581 6.99893 43.3998 6.99893H45.5327V4.48572C45.5327 4.45075 45.5413 4.41655 45.5573 4.38725C45.5732 4.35796 45.596 4.33481 45.6227 4.3206L48.7013 2.69661C48.7128 2.69049 48.7254 2.68791 48.7379 2.68909C48.7505 2.69027 48.7626 2.69518 48.7731 2.70337C48.7837 2.71157 48.7923 2.72278 48.7983 2.736C48.8043 2.74922 48.8075 2.76402 48.8075 2.77906V6.99871H51.6001C51.6418 6.99871 51.676 7.03948 51.676 7.08931L51.6758 10.6818ZM57.6137 9.61566C57.9184 8.64172 58.4218 7.91142 59.124 7.42475C59.7669 6.9793 60.4769 6.73763 61.2543 6.69973L61.307 6.69747L61.3959 6.69565C61.4059 6.69547 61.4158 6.69767 61.425 6.7021C61.4343 6.70654 61.4427 6.71314 61.4498 6.7215C61.457 6.72987 61.4626 6.73985 61.4665 6.75085C61.4703 6.76184 61.4723 6.77365 61.4723 6.78557V10.9146C61.4723 11.0007 61.4095 11.0671 61.3377 11.0594C60.3935 10.9568 59.5457 11.2059 58.7941 11.8066C58.0072 12.4355 57.6137 13.4802 57.6137 14.9406V22.1228C57.6137 22.1468 57.6058 22.1698 57.5916 22.1868C57.5774 22.2038 57.5582 22.2134 57.5381 22.2134H54.4146C54.3945 22.2133 54.3754 22.2037 54.3612 22.1868C54.3471 22.1698 54.3391 22.1468 54.3391 22.1228V7.08908C54.3391 7.03925 54.3729 6.99893 54.4146 6.99893H57.5381C57.5798 6.99893 57.6137 7.03925 57.6137 7.08908V9.61566ZM68.8843 6.57244C70.6612 6.57244 72.0404 7.31286 73.022 8.7937V7.08863C73.022 7.0388 73.0559 6.99848 73.0976 6.99848H76.2211C76.2628 6.99848 76.2966 7.0388 76.2966 7.08863V22.1228C76.2966 22.1727 76.2628 22.213 76.2211 22.213H73.0976C73.0776 22.2129 73.0584 22.2034 73.0442 22.1865C73.0301 22.1697 73.0221 22.1468 73.022 22.1228V20.4178C72.0404 21.8986 70.6612 22.639 68.8843 22.639C67.1919 22.639 65.7407 21.8631 64.5308 20.3113C63.3208 18.7594 62.7158 16.8575 62.7158 14.6058C62.7158 12.3542 63.3208 10.4523 64.5308 8.90038C65.7407 7.34842 67.1919 6.57244 68.8843 6.57244ZM69.4933 10.3153C68.4779 10.3153 67.6401 10.716 66.9801 11.5173C66.3201 12.3187 65.99 13.3482 65.99 14.6058C65.99 15.8635 66.3201 16.8981 66.9801 17.7095C67.6402 18.5008 68.478 18.8964 69.4933 18.8964C70.5086 18.8964 71.3505 18.4958 72.019 17.6946C72.6875 16.8934 73.0218 15.8638 73.0218 14.6058C73.0218 13.3479 72.6875 12.3184 72.0188 11.5173C71.3506 10.716 70.5088 10.3153 69.4933 10.3153ZM86.1405 6.57244C87.8497 6.57244 89.3094 7.34834 90.5195 8.90015C91.7294 10.4521 92.3344 12.3539 92.3344 14.6056C92.3344 16.8573 91.7294 18.7591 90.5195 20.3111C89.3094 21.8631 87.8497 22.639 86.1405 22.639C84.3635 22.639 82.9928 21.8986 82.0283 20.4178V28.2086C82.0282 28.2326 82.0202 28.2555 82.0061 28.2724C81.9919 28.2894 81.9727 28.2989 81.9526 28.299H78.8291C78.8091 28.2989 78.7899 28.2894 78.7757 28.2724C78.7615 28.2555 78.7535 28.2326 78.7535 28.2086V7.08863C78.7535 7.0388 78.7874 6.99848 78.8291 6.99848H81.9526C81.9943 6.99848 82.0283 7.0388 82.0283 7.08863V8.7937C82.9928 7.31286 84.3635 6.57244 86.1405 6.57244ZM85.531 10.3153C84.5156 10.3153 83.678 10.716 83.0179 11.5173C82.3579 12.3187 82.0279 13.3482 82.0279 14.6058C82.0279 15.8635 82.3579 16.8981 83.0179 17.7095C83.678 18.5008 84.5156 18.8964 85.531 18.8964C86.5463 18.8964 87.3883 18.4958 88.0569 17.6946C88.7252 16.8934 89.0594 15.8638 89.0594 14.6058C89.0594 13.3479 88.7252 12.3184 88.0569 11.5173C87.3884 10.716 86.5464 10.3153 85.531 10.3153ZM94.3602 22.2132C94.3402 22.2132 94.321 22.2037 94.3068 22.1868C94.2927 22.1699 94.2846 22.147 94.2845 22.1231V7.08908C94.2846 7.06513 94.2926 7.04218 94.3068 7.02524C94.3209 7.00831 94.3401 6.99877 94.3602 6.99871H97.4837C97.5037 6.99877 97.523 7.00831 97.5371 7.02524C97.5513 7.04218 97.5593 7.06513 97.5593 7.08908V22.1231C97.5593 22.147 97.5513 22.17 97.5371 22.1869C97.523 22.2038 97.5037 22.2134 97.4837 22.2134L94.3602 22.2132ZM35.9075 12.3085C35.4591 12.0548 35.2349 11.7251 35.2349 11.3194C35.2349 10.9339 35.3745 10.6296 35.6537 10.4066C35.9329 10.1836 36.284 10.072 36.707 10.0718C37.5185 10.0718 38.1314 10.4508 38.5457 11.2088C38.5745 11.2618 38.631 11.2834 38.6791 11.2578L41.4421 9.79233C41.4517 9.78721 41.4604 9.7797 41.4675 9.77029C41.4746 9.76089 41.4799 9.7498 41.4831 9.73776C41.4864 9.72572 41.4875 9.71299 41.4863 9.70042C41.4851 9.68785 41.4817 9.67571 41.4764 9.66481L41.4191 9.54997C41.4045 9.52144 41.3907 9.49426 41.3793 9.47296C40.9055 8.58057 40.2929 7.91557 39.5249 7.40912C38.6787 6.85133 37.7394 6.57244 36.707 6.57244C35.3363 6.57244 34.1898 7.00354 33.2675 7.86574C32.3452 8.72779 31.884 9.90943 31.884 11.4107C31.884 12.4047 32.1083 13.2314 32.5567 13.8908C33.0053 14.5499 33.551 15.0316 34.194 15.3359C34.7763 15.6121 35.3708 15.8502 35.9748 16.0491L36.1233 16.0967C36.7664 16.2996 37.3121 16.5278 37.7606 16.7814C38.209 17.0349 38.4332 17.3645 38.4332 17.7702C38.4332 18.6427 37.8494 19.0789 36.6818 19.0789C35.5703 19.0789 34.8 18.5865 34.3709 17.6017C34.3537 17.5607 34.324 17.529 34.2879 17.5133C34.2518 17.4975 34.212 17.4989 34.1768 17.517L31.4218 18.9802C31.4126 18.9851 31.4042 18.9921 31.3973 19.0009C31.3904 19.0097 31.3851 19.0201 31.3816 19.0314C31.3781 19.0428 31.3765 19.0548 31.377 19.0669C31.3775 19.0789 31.3801 19.0907 31.3845 19.1016L31.4159 19.1786C32.3787 21.4856 34.134 22.639 36.6818 22.639C38.1371 22.639 39.3513 22.2181 40.3244 21.3761C41.2976 20.5344 41.7843 19.3325 41.7843 17.7702C41.7843 16.7359 41.5599 15.8737 41.1112 15.1836C40.6629 14.4942 40.1172 14.0023 39.4741 13.708C38.8916 13.4405 38.297 13.2119 37.6933 13.0231L37.5448 12.9778C36.9017 12.7851 36.356 12.5622 35.9075 12.3085Z" fill="#1C2131"/>
<path d="M0.869385 10.0748C0.869385 5.48322 0.869385 3.18744 2.06343 1.76095C3.25747 0.334473 5.17916 0.334473 9.02254 0.334473H16.2349C20.0783 0.334473 22 0.334473 23.1941 1.76095C24.3881 3.18744 24.3881 5.48322 24.3881 10.0748V18.6912C24.3881 23.2828 24.3881 25.5785 23.1941 27.005C22 28.4315 20.0783 28.4315 16.2349 28.4315H9.02254C5.17916 28.4315 3.25747 28.4315 2.06343 27.005C0.869385 25.5785 0.869385 23.2828 0.869385 18.6912V10.0748Z" fill="#4945FF"/>
<path d="M17.0973 8.85718H9.17944V13.6807H13.2168V18.5039H17.2541V9.04449C17.2541 8.99481 17.2376 8.94717 17.2082 8.91204C17.1788 8.87691 17.1389 8.85718 17.0973 8.85718Z" fill="white"/>
<path d="M13.0598 13.6807H13.2413V13.8975H13.0598V13.6807Z" fill="white"/>
<path d="M9.1792 13.6807H13.0601C13.1468 13.6807 13.2169 13.7645 13.2169 13.8678V18.5042H9.33618C9.2946 18.5042 9.25472 18.4844 9.22531 18.4493C9.19591 18.4142 9.17939 18.3665 9.17939 18.3168L9.1792 13.6807Z" fill="#9593FF"/>
<path d="M13.2166 18.5039H17.2539L13.3503 23.1673C13.3393 23.1804 13.3254 23.1893 13.3102 23.1929C13.295 23.1965 13.2792 23.1946 13.2649 23.1876C13.2506 23.1805 13.2384 23.1685 13.2298 23.1531C13.2212 23.1377 13.2166 23.1197 13.2166 23.1012V18.5039ZM9.17907 13.6807H5.33133C5.31583 13.6806 5.30068 13.6751 5.2878 13.6649C5.27491 13.6546 5.26487 13.6399 5.25892 13.6228C5.25298 13.6057 5.25141 13.5869 5.25441 13.5688C5.25741 13.5506 5.26485 13.5339 5.27578 13.5208L9.17945 8.85718L9.17907 13.6807Z" fill="#9593FF"/>
</g>
<defs>
<clipPath id="clip0_52_120">
<rect width="97.0704" height="28.3122" fill="white" transform="translate(0.869385 0.334473)"/>
</clipPath>
</defs>
</svg>
