<svg width="90" height="89" viewBox="0 0 90 89" fill="none" xmlns="http://www.w3.org/2000/svg">
<g clip-path="url(#clip0_52_118)">
<path d="M45.4186 17.7976C33.5542 17.7976 26.1417 23.7274 23.1733 35.5918C27.621 29.6613 32.8132 27.4375 38.7437 28.9203C42.1298 29.7642 44.5497 32.2195 47.2296 34.9404C51.591 39.3665 56.6393 44.4906 67.664 44.4906C79.5277 44.4906 86.941 38.5601 89.9093 26.6929C85.4603 32.6264 80.2699 34.8514 74.3383 33.3679C70.9528 32.5233 68.5357 30.0687 65.8524 27.3478C61.4937 22.9217 56.4468 17.7976 45.4186 17.7976ZM23.1733 44.4906C11.3096 44.4906 3.89634 50.421 0.927979 62.2882C5.37658 56.3547 10.5667 54.1297 16.4983 55.6132C19.8845 56.4578 22.3044 58.9125 24.9842 61.6333C29.3457 66.0595 34.394 71.1835 45.4186 71.1835C57.2824 71.1835 64.6956 65.2538 67.664 53.3894C63.2149 59.3201 58.0246 61.5439 52.093 60.0609C48.7075 59.2169 46.2904 56.7616 43.607 54.0407C39.2483 49.6146 34.2014 44.4906 23.1733 44.4906Z" fill="#38BDF8"/>
</g>
<defs>
<clipPath id="clip0_52_118">
<rect width="88.9813" height="88.9811" fill="white" transform="translate(0.925293)"/>
</clipPath>
</defs>
</svg>
