<svg width="90" height="89" viewBox="0 0 90 89" fill="none" xmlns="http://www.w3.org/2000/svg">
<path d="M16.6477 32.6729H85.935V83.8856H16.6477V32.6729Z" fill="white"/>
<path d="M1.93091 44.4281V87.8759H88.8268V0.980225H1.93091V44.4281ZM71.9551 40.9522C74.0363 41.4352 75.9279 42.5237 77.3913 44.0805C78.1968 44.9192 78.8971 45.853 79.4768 46.8611C79.4768 46.9724 75.7229 49.5097 73.4358 50.9278C73.3524 50.9835 73.0187 50.622 72.6502 50.0728C72.2327 49.3524 71.6395 48.7495 70.9259 48.3204C70.2123 47.8912 69.4017 47.6499 68.5696 47.6189C65.9349 47.4381 64.2387 48.8215 64.2526 51.0947C64.2315 51.6606 64.3611 52.2219 64.628 52.7214C65.205 53.924 66.2825 54.64 69.661 56.0999C75.8828 58.7763 78.5452 60.542 80.1997 63.0515C82.0489 65.8322 82.459 70.323 81.2077 73.6459C79.8174 77.2607 76.4111 79.7146 71.5936 80.528C69.3933 80.7801 67.1701 80.7568 64.9756 80.4585C61.6121 79.9041 58.5139 78.2892 56.1331 75.8495C55.3336 74.9667 53.7765 72.6657 53.8738 72.4988C54.1271 72.3097 54.3943 72.1401 54.6732 71.9914L57.8918 70.2117L60.3875 68.7658L60.9089 69.5374C61.789 70.7958 62.9088 71.8683 64.204 72.6935C66.9846 74.1533 70.7802 73.9517 72.6572 72.2625C73.2874 71.6435 73.6805 70.8231 73.7682 69.9441C73.8558 69.0651 73.6324 68.1832 73.1369 67.4519C72.4417 66.4856 71.0513 65.6723 67.1654 63.9761C62.6815 62.0435 60.749 60.8479 58.9833 58.9431C57.8813 57.6859 57.0675 56.203 56.5988 54.5983C56.2495 52.7648 56.1979 50.887 56.4459 49.037C57.3705 44.7061 60.6169 41.6822 65.3579 40.7854C67.5536 40.5141 69.7776 40.5751 71.9551 40.9661V40.9522ZM51.5589 44.5949V48.1541H40.2763V80.2916H32.2749V48.1472H20.9646V44.6714C20.9291 43.4727 20.9569 42.2731 21.048 41.0774C21.1036 41.0148 27.9997 41.0148 36.3417 41.0148H51.5172L51.5589 44.5949Z" fill="#007ACC"/>
</svg>
