<svg width="90" height="89" viewBox="0 0 90 89" fill="none" xmlns="http://www.w3.org/2000/svg">
<path d="M45.4347 7.41504C25.0061 7.41504 8.35913 24.0619 8.35913 44.4905C8.35913 64.9191 25.0061 81.566 45.4347 81.566C65.8633 81.566 82.5103 64.9191 82.5103 44.4905C82.5103 24.0619 65.8633 7.41504 45.4347 7.41504ZM12.1038 44.4905C12.1038 39.6707 13.1419 35.0733 14.9957 30.9209L30.9011 74.4846C19.7784 69.0715 12.1038 57.6894 12.1038 44.4905ZM45.4347 77.8213C42.1721 77.8213 39.0206 77.3394 36.0175 76.4496L46.0279 47.3824L56.2608 75.4485C56.3349 75.5968 56.4091 75.7822 56.4832 75.8934C53.0352 77.154 49.3276 77.8213 45.4347 77.8213ZM50.0321 28.8447C52.0342 28.7334 53.8509 28.511 53.8509 28.511C55.6305 28.2885 55.4451 25.6562 53.6284 25.7674C53.6284 25.7674 48.2154 26.1752 44.7303 26.1752C41.4676 26.1752 35.9434 25.7674 35.9434 25.7674C34.1637 25.6932 33.9413 28.4368 35.758 28.5481C35.758 28.5481 37.4635 28.7705 39.2431 28.8817L44.4337 43.1187L37.1298 64.9932L25.0061 28.8447C27.0081 28.7705 28.8249 28.5481 28.8249 28.5481C30.6045 28.3256 30.4191 25.6932 28.6024 25.8045C28.6024 25.8045 23.1894 26.2123 19.7043 26.2123C19.074 26.2123 18.3325 26.2123 17.5539 26.1752C23.5601 17.1288 33.793 11.1597 45.4347 11.1597C54.1104 11.1597 62.0075 14.4594 67.9396 19.9095C67.7913 19.9095 67.643 19.8724 67.4947 19.8724C64.232 19.8724 61.8963 22.7272 61.8963 25.8045C61.8963 28.5481 63.4905 30.8838 65.1589 33.6274C66.4195 35.8519 67.9025 38.7067 67.9025 42.8221C67.9025 45.6769 66.7902 48.9766 65.3814 53.6111L62.0446 64.7337L50.0321 28.8447ZM74.6873 28.511C78.8498 36.1328 79.8731 45.0781 77.5395 53.443C75.2059 61.808 69.6997 68.9318 62.1929 73.2981L72.3887 43.8602C74.2795 39.1146 74.9098 35.2958 74.9098 31.9219C74.9098 30.6984 74.8356 29.5491 74.6873 28.511Z" fill="#1C2131"/>
</svg>
