<svg width="146" height="49" viewBox="0 0 146 49" fill="none" xmlns="http://www.w3.org/2000/svg">
<path d="M0 22.3421C4.2502 22.3421 4.84906 19.9992 4.84906 17.8978C4.84906 16.2161 4.60931 14.5344 4.37057 12.8527C4.13083 11.171 3.89209 9.54972 3.89209 7.86803C3.89209 2.34189 7.48424 0 12.573 0H13.8299V3.303H12.7526C9.22063 3.303 8.02291 5.22522 8.02291 8.46885C8.02291 9.85063 8.20247 11.2918 8.44221 12.733C8.68196 14.2345 8.86152 15.6757 8.86152 17.298C8.9217 21.1424 7.2455 23.0636 4.55113 23.7852V23.905C7.2455 24.5662 8.9217 26.6082 8.86152 30.4516C8.86152 32.0729 8.68196 33.5745 8.44221 35.0166C8.20247 36.5182 8.02291 37.9 8.02291 39.3411C8.02291 42.7045 9.40019 44.5664 12.7526 44.5664H13.8299V47.8694H12.573C7.60361 47.8694 3.89209 45.7066 3.89209 39.641C3.89209 38.0197 4.13183 36.337 4.37057 34.7157C4.61032 33.0944 4.84906 31.4721 4.84906 29.8508C4.84906 27.989 4.2502 25.4065 0 25.4065V22.3421Z" fill="#8800FF"/>
<path d="M74.9999 26.0022C70.7497 26.0022 70.1509 28.5846 70.1509 30.4464C70.1509 32.0677 70.3906 33.6901 70.6294 35.3114C70.8691 36.9327 71.1078 38.6144 71.1078 40.2367C71.1078 46.3032 67.3361 48.465 62.4269 48.465H61.17V45.163H62.1881C65.5406 45.1026 66.977 43.3011 66.977 39.9378C66.977 38.4966 66.7373 37.1148 66.5577 35.6133C66.318 34.1721 66.0792 32.6706 66.0792 31.0483C66.0792 27.2038 67.7554 25.1619 70.3896 24.5017V24.3819C67.7554 23.6613 66.0792 21.7391 66.0792 17.8947C66.0792 16.2734 66.319 14.8312 66.5577 13.3297C66.7373 11.8885 66.977 10.4463 66.977 9.06555C66.977 5.82194 65.7201 3.9601 62.2473 3.89972H61.17V0.596725H62.3677C67.4565 0.596725 71.1078 2.93962 71.1078 8.46473C71.1078 10.1464 70.8681 11.7677 70.6294 13.4494C70.3896 15.1311 70.1509 16.8128 70.1509 18.4945C70.1509 20.5968 70.7497 22.9387 74.9999 22.9387V26.0022Z" fill="#8800FF"/>
<path d="M51.796 31.2571V25.7652H55.013V17.4151H28.931V20.6859V25.7652V31.2571H22.2883V14.0065H37.2538V5.65637H22.2883H15.0388H13.9655V31.2571V38.9168V39.6072H28.931V47.4239H37.2538V39.6072H43.4732V47.4239H51.796V39.6072H63.027V31.2571H51.796ZM46.3692 28.6566L41.4419 28.098V28.1604L44.5746 31.8821L42.5192 32.9992L40.5611 28.6566H40.4959L38.3753 33.0294L36.5155 31.9123L39.6152 28.1282V28.0658L34.7862 28.6556V26.5472L39.5831 27.1369V27.0745L36.5155 23.2905L38.5057 22.2046L40.529 26.516H40.5942L42.5844 22.1734L44.5425 23.2281L41.4429 27.1047V27.1671L46.3702 26.5472V28.6566H46.3692Z" fill="#F5EBFF"/>
<path d="M78.0124 13.368C78.0124 12.2587 78.2524 11.272 78.7324 10.408C79.2124 9.53333 79.879 8.856 80.7324 8.376C81.5964 7.88533 82.5724 7.64 83.6604 7.64C84.9937 7.64 86.135 7.992 87.0844 8.696C88.0337 9.4 88.6684 10.36 88.9884 11.576H85.9804C85.7564 11.1067 85.4364 10.7493 85.0204 10.504C84.615 10.2587 84.151 10.136 83.6284 10.136C82.7857 10.136 82.103 10.4293 81.5804 11.016C81.0577 11.6027 80.7964 12.3867 80.7964 13.368C80.7964 14.3493 81.0577 15.1333 81.5804 15.72C82.103 16.3067 82.7857 16.6 83.6284 16.6C84.151 16.6 84.615 16.4773 85.0204 16.232C85.4364 15.9867 85.7564 15.6293 85.9804 15.16H88.9884C88.6684 16.376 88.0337 17.336 87.0844 18.04C86.135 18.7333 84.9937 19.08 83.6604 19.08C82.5724 19.08 81.5964 18.84 80.7324 18.36C79.879 17.8693 79.2124 17.192 78.7324 16.328C78.2524 15.464 78.0124 14.4773 78.0124 13.368ZM95.9759 19.112C94.9199 19.112 93.9492 18.8667 93.0639 18.376C92.1892 17.8853 91.4905 17.2027 90.9679 16.328C90.4559 15.4427 90.1999 14.4507 90.1999 13.352C90.1999 12.2533 90.4559 11.2667 90.9679 10.392C91.4905 9.51733 92.1892 8.83467 93.0639 8.344C93.9492 7.85333 94.9199 7.608 95.9759 7.608C97.0319 7.608 97.9972 7.85333 98.8719 8.344C99.7572 8.83467 100.451 9.51733 100.952 10.392C101.464 11.2667 101.72 12.2533 101.72 13.352C101.72 14.4507 101.464 15.4427 100.952 16.328C100.44 17.2027 99.7465 17.8853 98.8719 18.376C97.9972 18.8667 97.0319 19.112 95.9759 19.112ZM95.9759 16.616C96.8719 16.616 97.5865 16.3173 98.1199 15.72C98.6639 15.1227 98.9359 14.3333 98.9359 13.352C98.9359 12.36 98.6639 11.5707 98.1199 10.984C97.5865 10.3867 96.8719 10.088 95.9759 10.088C95.0692 10.088 94.3439 10.3813 93.7999 10.968C93.2665 11.5547 92.9999 12.3493 92.9999 13.352C92.9999 14.344 93.2665 15.1387 93.7999 15.736C94.3439 16.3227 95.0692 16.616 95.9759 16.616ZM108.97 19L106.634 14.76H105.978V19H103.242V7.768H107.834C108.719 7.768 109.471 7.92267 110.09 8.232C110.719 8.54133 111.189 8.968 111.498 9.512C111.807 10.0453 111.962 10.6427 111.962 11.304C111.962 12.0507 111.749 12.7173 111.322 13.304C110.906 13.8907 110.287 14.3067 109.466 14.552L112.058 19H108.97ZM105.978 12.824H107.674C108.175 12.824 108.549 12.7013 108.794 12.456C109.05 12.2107 109.178 11.864 109.178 11.416C109.178 10.9893 109.05 10.6533 108.794 10.408C108.549 10.1627 108.175 10.04 107.674 10.04H105.978V12.824ZM120.48 13.24C121.13 13.3787 121.653 13.704 122.048 14.216C122.442 14.7173 122.64 15.2933 122.64 15.944C122.64 16.8827 122.309 17.6293 121.648 18.184C120.997 18.728 120.085 19 118.912 19H113.68V7.768H118.736C119.877 7.768 120.768 8.02933 121.408 8.552C122.058 9.07467 122.384 9.784 122.384 10.68C122.384 11.3413 122.208 11.8907 121.856 12.328C121.514 12.7653 121.056 13.0693 120.48 13.24ZM116.416 12.312H118.208C118.656 12.312 118.997 12.216 119.232 12.024C119.477 11.8213 119.6 11.528 119.6 11.144C119.6 10.76 119.477 10.4667 119.232 10.264C118.997 10.0613 118.656 9.96 118.208 9.96H116.416V12.312ZM118.432 16.792C118.89 16.792 119.242 16.6907 119.488 16.488C119.744 16.2747 119.872 15.9707 119.872 15.576C119.872 15.1813 119.738 14.872 119.472 14.648C119.216 14.424 118.858 14.312 118.4 14.312H116.416V16.792H118.432ZM133.858 7.768L129.97 15.288V19H127.234V15.288L123.346 7.768H126.45L128.626 12.472L130.786 7.768H133.858ZM145.009 19H142.273L137.697 12.072V19H134.961V7.768H137.697L142.273 14.728V7.768H145.009V19ZM86.5934 40.016H82.4014L81.7294 42H78.8654L82.9294 30.768H86.0974L90.1614 42H87.2654L86.5934 40.016ZM85.8894 37.904L84.4974 33.792L83.1214 37.904H85.8894ZM94.1343 39.888H97.7183V42H91.3983V30.768H94.1343V39.888ZM107.103 30.768V32.96H104.127V42H101.391V32.96H98.4153V30.768H107.103ZM121.196 30.768V42H118.46V35.264L115.948 42H113.74L111.212 35.248V42H108.476V30.768H111.708L114.86 38.544L117.98 30.768H121.196ZM130.156 40.016H125.964L125.292 42H122.428L126.492 30.768H129.66L133.724 42H130.828L130.156 40.016ZM129.452 37.904L128.06 33.792L126.684 37.904H129.452ZM145.009 42H142.273L137.697 35.072V42H134.961V30.768H137.697L142.273 37.728V30.768H145.009V42Z" fill="white"/>
</svg>
